<?xml version="1.0" encoding="UTF-8" standalone="no"?><!DOCTYPE svg PUBLIC "-//W3C//DTD SVG 1.1//EN" "http://www.w3.org/Graphics/SVG/1.1/DTD/svg11.dtd"><svg width="100%" height="100%" viewBox="0 0 394 150" version="1.1" xmlns="http://www.w3.org/2000/svg" xmlns:xlink="http://www.w3.org/1999/xlink" xml:space="preserve" xmlns:serif="http://www.serif.com/" style="fill-rule:evenodd;clip-rule:evenodd;stroke-linejoin:round;stroke-miterlimit:2;"><g><path d="M166.46,135.143l19.87,-0l-50.733,-117.294l-18.773,0l-42.749,98.831l84.399,-0l7.986,18.463Zm-60.344,-46.259l19.765,-46.581l19.93,46.581l-39.695,-0Z" style="fill:#a4a7a6;fill-rule:nonzero;"/><path d="M91.903,36.733l9.406,-18.472l-85.323,0l0,116.47l50.104,-0l7.986,-18.461l-37.993,0l0,-31.118l36.197,0l7.596,-18.472l-43.793,0l0,-29.947l55.82,0Z" style="fill:#a4a7a6;fill-rule:nonzero;"/><path d="M393.442,103.917l0,-103.917l-393.442,-0l0,150l393.442,-0l0,-43.27l-198.135,0l0,36.191l-188.296,0l-0,-135.839l188.296,-0l0,96.835l198.135,-0Zm-25.946,24.482c0,-0.923 0.159,-1.807 0.486,-2.648c0.321,-0.841 0.779,-1.583 1.364,-2.225c0.583,-0.643 1.288,-1.151 2.106,-1.532c0.821,-0.378 1.733,-0.569 2.737,-0.569c0.559,0 1.071,0.037 1.534,0.117c0.466,0.077 0.898,0.19 1.296,0.347c0.404,0.153 0.776,0.344 1.128,0.568c0.35,0.225 0.688,0.477 1.021,0.759l-0.975,1.156c-0.253,-0.23 -0.52,-0.44 -0.802,-0.625c-0.278,-0.187 -0.579,-0.346 -0.903,-0.48c-0.324,-0.136 -0.68,-0.242 -1.069,-0.321c-0.389,-0.077 -0.815,-0.114 -1.287,-0.114c-0.739,0 -1.418,0.148 -2.041,0.443c-0.622,0.296 -1.159,0.694 -1.602,1.194c-0.444,0.503 -0.796,1.088 -1.049,1.765c-0.256,0.673 -0.381,1.384 -0.381,2.126l0,0.039c0,0.81 0.122,1.555 0.372,2.234c0.248,0.682 0.6,1.273 1.058,1.773c0.457,0.5 1.011,0.893 1.659,1.177c0.648,0.281 1.379,0.423 2.194,0.423c0.765,0 1.481,-0.133 2.154,-0.395c0.674,-0.261 1.239,-0.582 1.697,-0.955l-0,-3.35l-4.061,-0l-0,-1.37l5.513,0l-0,5.377c-0.625,0.565 -1.393,1.048 -2.299,1.452c-0.909,0.406 -1.93,0.608 -3.064,0.608c-1.054,0 -1.997,-0.179 -2.83,-0.54c-0.833,-0.361 -1.546,-0.852 -2.137,-1.483c-0.591,-0.628 -1.043,-1.364 -1.353,-2.206c-0.312,-0.841 -0.466,-1.742 -0.466,-2.708l0,-0.037Zm-19.569,-6.743l1.413,-0l8.409,10.807l-0,-10.807l1.469,-0l-0,13.487l-1.202,-0l-8.619,-11.06l-0,11.06l-1.47,-0l0,-13.487Zm-10.506,-0l1.506,-0l0,13.487l-1.506,-0l0,-13.487Zm-18.537,-0l10.469,-0l0,1.406l-4.481,0l-0,12.081l-1.509,-0l-0,-12.081l-4.479,0l-0,-1.406Zm-10.987,-0l1.507,-0l-0,12.08l7.513,0l0,1.407l-9.02,-0l0,-13.487Zm-19.776,-0l1.506,-0l0,7.746c0,1.461 0.358,2.587 1.077,3.371c0.719,0.784 1.72,1.174 3.004,1.174c1.234,-0 2.214,-0.373 2.939,-1.117c0.724,-0.745 1.085,-1.856 1.085,-3.331l0,-7.843l1.509,-0l0,7.727c0,0.989 -0.136,1.855 -0.403,2.6c-0.265,0.744 -0.645,1.367 -1.134,1.867c-0.489,0.503 -1.074,0.878 -1.754,1.128c-0.682,0.253 -1.44,0.375 -2.279,0.375c-0.827,0 -1.58,-0.122 -2.262,-0.375c-0.679,-0.25 -1.264,-0.622 -1.753,-1.117c-0.489,-0.494 -0.867,-1.108 -1.134,-1.838c-0.267,-0.734 -0.401,-1.575 -0.401,-2.524l0,-7.843Zm-9.611,9.142c-0.102,-0.25 -0.281,-0.478 -0.537,-0.685c-0.256,-0.205 -0.608,-0.389 -1.06,-0.557c-0.452,-0.168 -1.029,-0.327 -1.731,-0.483c-0.764,-0.165 -1.429,-0.358 -1.997,-0.577c-0.569,-0.219 -1.035,-0.48 -1.404,-0.79c-0.37,-0.31 -0.645,-0.668 -0.824,-1.08c-0.177,-0.409 -0.268,-0.892 -0.268,-1.444l0,-0.037c0,-0.528 0.108,-1.017 0.324,-1.466c0.216,-0.449 0.523,-0.838 0.915,-1.165c0.395,-0.327 0.859,-0.586 1.393,-0.77c0.534,-0.185 1.12,-0.282 1.756,-0.282c0.978,0 1.833,0.14 2.564,0.418c0.73,0.273 1.44,0.691 2.128,1.239l-0.878,1.177c-0.622,-0.512 -1.25,-0.887 -1.879,-1.117c-0.628,-0.233 -1.287,-0.347 -1.972,-0.347c-0.878,0 -1.571,0.21 -2.08,0.625c-0.509,0.418 -0.762,0.935 -0.762,1.552l0,0.04c0,0.321 0.049,0.605 0.151,0.855c0.102,0.25 0.287,0.48 0.551,0.694c0.27,0.213 0.64,0.406 1.109,0.579c0.469,0.174 1.074,0.336 1.813,0.492c1.486,0.332 2.583,0.796 3.288,1.387c0.705,0.591 1.057,1.398 1.057,2.427l-0,0.037c-0,0.579 -0.111,1.102 -0.338,1.571c-0.225,0.469 -0.537,0.87 -0.935,1.202c-0.395,0.336 -0.876,0.591 -1.435,0.773c-0.557,0.179 -1.168,0.267 -1.83,0.267c-1.066,0 -2.044,-0.176 -2.928,-0.528c-0.883,-0.353 -1.725,-0.895 -2.526,-1.629l0.935,-1.116c0.699,0.642 1.404,1.119 2.117,1.435c0.711,0.315 1.532,0.471 2.458,0.471c0.904,0 1.626,-0.213 2.166,-0.645c0.54,-0.429 0.81,-0.977 0.81,-1.645l-0,-0.04c-0,-0.31 -0.051,-0.585 -0.151,-0.838m-27.634,-9.142l1.41,-0l8.412,10.807l-0,-10.807l1.466,-0l-0,13.487l-1.202,-0l-8.619,-11.06l-0,11.06l-1.467,-0l0,-13.487Zm-21.896,6.743c-0,-0.923 0.168,-1.81 0.497,-2.66c0.33,-0.847 0.793,-1.588 1.393,-2.225c0.597,-0.634 1.316,-1.139 2.154,-1.52c0.838,-0.378 1.768,-0.569 2.785,-0.569c1.017,0 1.941,0.185 2.773,0.56c0.836,0.373 1.549,0.876 2.146,1.512c0.6,0.634 1.06,1.373 1.384,2.217c0.324,0.841 0.486,1.722 0.486,2.646c0.011,0.014 0.011,0.028 -0,0.039c-0,0.927 -0.165,1.811 -0.497,2.66c-0.33,0.847 -0.793,1.586 -1.393,2.225c-0.597,0.634 -1.313,1.143 -2.154,1.521c-0.838,0.381 -1.768,0.568 -2.782,0.568c-1.02,0 -1.944,-0.187 -2.777,-0.56c-0.832,-0.369 -1.548,-0.875 -2.145,-1.512c-0.597,-0.633 -1.06,-1.375 -1.384,-2.213c-0.324,-0.842 -0.486,-1.725 -0.486,-2.652l-0,-0.037Zm-19.165,0c-0,-0.952 0.167,-1.85 0.506,-2.697c0.335,-0.846 0.801,-1.588 1.401,-2.225c0.596,-0.636 1.31,-1.136 2.137,-1.503c0.824,-0.367 1.727,-0.549 2.708,-0.549c0.608,0 1.159,0.052 1.648,0.154c0.489,0.102 0.944,0.25 1.364,0.435c0.421,0.184 0.807,0.409 1.163,0.673c0.358,0.265 0.701,0.557 1.031,0.876l-1.031,1.119c-0.572,-0.54 -1.186,-0.983 -1.839,-1.33c-0.657,-0.346 -1.441,-0.52 -2.356,-0.52c-0.739,0 -1.421,0.142 -2.049,0.424c-0.631,0.281 -1.179,0.673 -1.643,1.173c-0.463,0.503 -0.827,1.092 -1.085,1.765c-0.262,0.674 -0.392,1.395 -0.392,2.166l-0,0.039c-0,0.785 0.13,1.512 0.392,2.188c0.258,0.674 0.622,1.262 1.085,1.76c0.464,0.503 1.012,0.898 1.643,1.187c0.628,0.287 1.31,0.432 2.049,0.432c0.915,0 1.702,-0.17 2.364,-0.508c0.663,-0.341 1.31,-0.822 1.947,-1.435l0.992,0.983c-0.344,0.358 -0.705,0.682 -1.077,0.972c-0.378,0.287 -0.782,0.534 -1.214,0.742c-0.432,0.204 -0.895,0.363 -1.392,0.48c-0.495,0.116 -1.049,0.173 -1.66,0.173c-0.963,0 -1.856,-0.179 -2.668,-0.54c-0.813,-0.361 -1.521,-0.85 -2.117,-1.472c-0.6,-0.625 -1.066,-1.358 -1.401,-2.208c-0.339,-0.847 -0.506,-1.751 -0.506,-2.717l-0,-0.037Zm102.928,-99.429l10.813,34.886l11.708,-35.034l9.847,-0l11.708,35.034l10.816,-34.886l12.01,-0l-17.83,51.886l-9.991,-0l-11.786,-33.71l-11.782,33.71l-9.997,-0l-17.824,-51.886l12.308,-0Zm-38.862,-0.37l10.591,0l22.377,51.889l-12.007,-0l-4.774,-11.555l-22.078,0l-4.775,11.555l-11.708,-0l22.374,-51.889Zm-64.066,0.37l11.486,-0l0,41.288l26.029,0l-0,10.231l-37.515,-0l-0,-51.519Z" style="fill:#a4a7a6;fill-rule:nonzero;"/><path d="M279.026,42.303l-6.934,16.707l13.871,0l-6.937,-16.707Z" style="fill:#a4a7a6;fill-rule:nonzero;"/><path d="M232.032,132.328c0.469,0.503 1.029,0.901 1.668,1.194c0.642,0.298 1.344,0.443 2.109,0.443c0.761,0 1.463,-0.145 2.106,-0.432c0.642,-0.29 1.193,-0.685 1.651,-1.185c0.457,-0.5 0.815,-1.086 1.077,-1.753c0.261,-0.668 0.389,-1.387 0.389,-2.157l0,-0.04c0,-0.77 -0.128,-1.492 -0.389,-2.166c-0.262,-0.676 -0.628,-1.261 -1.097,-1.764c-0.469,-0.501 -1.026,-0.898 -1.668,-1.194c-0.643,-0.295 -1.344,-0.443 -2.106,-0.443c-0.765,-0 -1.466,0.145 -2.109,0.435c-0.642,0.287 -1.19,0.682 -1.651,1.185c-0.457,0.5 -0.815,1.082 -1.077,1.75c-0.258,0.668 -0.389,1.387 -0.389,2.16l-0,0.037c-0,0.77 0.131,1.492 0.389,2.168c0.262,0.674 0.628,1.262 1.097,1.762" style="fill:#a4a7a6;fill-rule:nonzero;"/></g></svg>