<?xml version="1.0" encoding="UTF-8" standalone="no"?><!DOCTYPE svg PUBLIC "-//W3C//DTD SVG 1.1//EN" "http://www.w3.org/Graphics/SVG/1.1/DTD/svg11.dtd"><svg width="100%" height="100%" viewBox="0 0 2080 461" version="1.1" xmlns="http://www.w3.org/2000/svg" xmlns:xlink="http://www.w3.org/1999/xlink" xml:space="preserve" xmlns:serif="http://www.serif.com/" style="fill-rule:evenodd;clip-rule:evenodd;stroke-linejoin:round;stroke-miterlimit:2;"><path d="M641.2,124.667c0,-39.242 14.746,-69.813 44.242,-91.413c29.475,-21.491 62.783,-33.254 100.283,-33.254l203.25,0l0,77.521l-180.883,0.104c-14.871,0 -27.454,1.717 -37.875,8.342c-10.296,6.737 -15.513,15.391 -15.513,26.187c0,9.309 4.321,18.079 12.842,26.525c8.525,8.121 33.433,20 74.737,35.188c39.917,14.85 70.288,28.32 91.65,40.187c21.355,12.088 38.121,27.479 50.467,46.629c12.325,19.138 18.675,41.167 18.675,66.296c0,44.363 -15.508,77.938 -46.521,100.392c-29.608,21.383 -64.429,32.617 -104.221,33.575l-211.133,0l0,-76.988l178.979,0c16.509,0 30.504,-4.808 41.809,-14.437c11.441,-9.508 17.037,-20.729 17.037,-33.784c0,-13.791 -5.462,-25.441 -16.529,-34.75c-11.317,-9.404 -31.525,-20.095 -61.013,-31.962c-62.275,-25.129 -104.612,-47.263 -126.854,-66.504c-22.116,-19.254 -33.429,-45.134 -33.429,-77.854" style="fill:#ff8100;"/><path d="M328.321,0l-103.188,306.883l-89.866,-272.35c-6.813,-20.616 -25.93,-34.533 -47.463,-34.533l-76.087,0c-8.996,0 -14.625,9.808 -10.146,17.671l10.308,18.121c5.504,9.662 10.133,19.804 13.838,30.296l139.416,394.858l94.288,0l156.492,-460.946l-87.592,0Z" style="fill:#ff8100;"/><rect x="483.538" y="0" width="90.038" height="460.946" style="fill:#ff8100;"/><rect x="1070.7" y="0" width="90.038" height="459.646" style="fill:#ff8100;"/><path d="M2073.59,409.954l-0.001,-409.954l-80.899,0l0,283.758l-152.434,-259.087c-8.983,-15.296 -25.371,-24.671 -43.075,-24.671l-102.679,0c-4.4,0 -7.646,4.342 -6.163,8.496c4.95,13.829 7.476,28.421 7.476,43.15l-0.001,409.3l80.909,0l0,-339.913l181.266,314.975c8.967,15.442 25.438,24.938 43.246,24.938l71.429,0c4.288,0 7.263,-4.05 6.226,-8.204c-3.526,-13.984 -5.301,-28.363 -5.301,-42.788" style="fill:#ff8100;"/><path d="M1418.51,77.396l201.837,0l0,-77.396l-217.337,0c-96.421,0 -174.6,78.871 -174.621,176.183l-0.029,108.475c-0.034,97.363 78.158,176.288 174.629,176.288l161.996,0c30.566,0 55.362,-25.017 55.362,-55.875l0,-139.259c0,-19.524 -15.683,-35.333 -35.017,-35.333l-71.191,0c-7.659,0 -13.388,8.383 -13.817,14.663c-0.662,9.733 9.292,23.891 9.838,43.729c0.07,20.725 0,77.354 0,77.354c0,9.796 -7.875,17.742 -17.571,17.742l-74.079,0c-43.346,0 -78.48,-35.467 -78.48,-79.205l0,-148.162c0,-43.738 35.134,-79.204 78.48,-79.204" style="fill:#ff8100;"/></svg>