<?xml version="1.0" encoding="UTF-8" standalone="no"?>
<!DOCTYPE svg PUBLIC "-//W3C//DTD SVG 1.1//EN" "http://www.w3.org/Graphics/SVG/1.1/DTD/svg11.dtd">
<svg width="100%" height="100%" viewBox="0 0 939 939" version="1.1" xmlns="http://www.w3.org/2000/svg" xmlns:xlink="http://www.w3.org/1999/xlink" xml:space="preserve" xmlns:serif="http://www.serif.com/" style="fill-rule:evenodd;clip-rule:evenodd;">
    <g transform="matrix(1.20835,0,0,2.4167,-9.28834,-9.00575)">
        <rect x="0" y="0" width="792" height="396" style="fill:white;"/>
    </g>
    <g transform="matrix(1.35354,0,0,1.35354,-918.967,-858.859)">
        <path d="M998.232,875.24L1053.08,875.24L1104.37,976.024L1044.35,976.024L1000.58,888.123L965.856,956.772L998.782,949.354L998.782,951.883L956.115,976.024L947.239,976.024L998.232,875.24Z" style="fill:rgb(63,194,0);"/>
    </g>
    <g transform="matrix(1.78395,0,0,1.78395,-219.41,-595.916)">
        <path d="M314.941,665.042C315.83,665.13 316.577,665.49 317.182,666.124C317.787,666.759 318.089,667.6 318.089,668.65C318.089,669.976 317.655,671.018 316.788,671.776C315.921,672.534 314.729,672.913 313.213,672.913L307.813,672.913L307.813,657.609L312.929,657.609C314.46,657.609 315.662,657.962 316.537,658.669C317.411,659.376 317.849,660.349 317.849,661.588C317.849,663.512 316.879,664.663 314.941,665.042ZM312.82,659.817L310.328,659.817L310.328,664.015L312.82,664.015C313.607,664.015 314.223,663.829 314.667,663.457C315.112,663.085 315.334,662.572 315.334,661.916C315.334,661.245 315.116,660.728 314.678,660.363C314.241,659.999 313.622,659.817 312.82,659.817ZM313.17,670.705C313.928,670.705 314.518,670.501 314.941,670.093C315.363,669.685 315.575,669.116 315.575,668.387C315.575,667.746 315.356,667.225 314.919,666.824C314.482,666.423 313.906,666.223 313.192,666.223L310.328,666.223L310.328,670.705L313.17,670.705Z" style="fill:rgb(77,77,77);fill-rule:nonzero;"/>
        <path d="M324.167,673.175C323.016,673.175 322.097,672.833 321.412,672.148C320.727,671.463 320.385,670.457 320.385,669.131L320.385,662.725L322.768,662.725L322.768,668.54C322.768,669.4 322.928,670.049 323.249,670.486C323.569,670.923 324.101,671.142 324.845,671.142C325.705,671.142 326.331,670.898 326.725,670.41C327.119,669.921 327.315,669.276 327.315,668.475L327.315,662.725L329.698,662.725L329.698,672.913L327.315,672.913L327.315,671.492C326.689,672.614 325.639,673.175 324.167,673.175Z" style="fill:rgb(77,77,77);fill-rule:nonzero;"/>
        <path d="M335.23,660.746C334.895,661.089 334.472,661.26 333.962,661.26C333.452,661.26 333.029,661.089 332.694,660.746C332.358,660.404 332.191,659.985 332.191,659.489C332.191,658.993 332.358,658.574 332.694,658.232C333.029,657.889 333.452,657.718 333.962,657.718C334.472,657.718 334.895,657.889 335.23,658.232C335.565,658.574 335.733,658.993 335.733,659.489C335.733,659.985 335.565,660.404 335.23,660.746ZM332.759,672.913L332.759,662.725L335.142,662.725L335.142,672.913L332.759,672.913Z" style="fill:rgb(77,77,77);fill-rule:nonzero;"/>
        <rect x="338.203" y="657.609" width="2.383" height="15.304" style="fill:rgb(77,77,77);fill-rule:nonzero;"/>
        <path d="M351.146,657.609L353.53,657.609L353.53,672.913L351.146,672.913L351.146,671.536C350.855,672.031 350.399,672.428 349.78,672.727C349.16,673.026 348.53,673.175 347.889,673.175C346.3,673.175 345.068,672.673 344.194,671.667C343.319,670.661 342.882,669.378 342.882,667.819C342.882,666.274 343.341,664.995 344.259,663.982C345.178,662.969 346.409,662.462 347.954,662.462C348.639,662.462 349.266,662.608 349.835,662.9C350.403,663.191 350.84,663.592 351.146,664.102L351.146,657.609ZM348.239,671.055C349.215,671.055 349.962,670.749 350.48,670.136C350.997,669.524 351.256,668.752 351.256,667.819C351.256,666.886 350.997,666.114 350.48,665.501C349.962,664.889 349.215,664.583 348.239,664.583C347.32,664.583 346.595,664.886 346.063,665.49C345.531,666.095 345.265,666.871 345.265,667.819C345.265,668.766 345.531,669.542 346.063,670.147C346.595,670.752 347.32,671.055 348.239,671.055Z" style="fill:rgb(77,77,77);fill-rule:nonzero;"/>
        <path d="M368.987,662.725L371.37,662.725L371.37,672.957C371.37,674.516 370.925,675.726 370.036,676.586C369.176,677.373 368.025,677.767 366.582,677.767C365.081,677.767 363.915,677.417 363.084,676.717C362.355,676.076 361.976,675.194 361.947,674.072L364.352,674.072C364.41,674.655 364.603,675.088 364.931,675.373C365.259,675.657 365.795,675.799 366.538,675.799C367.296,675.799 367.894,675.555 368.331,675.067C368.768,674.578 368.987,673.817 368.987,672.782L368.987,671.492C368.331,672.614 367.238,673.175 365.707,673.175C364.498,673.175 363.568,672.786 362.92,672.006C362.271,671.226 361.947,670.202 361.947,668.934L361.947,662.725L364.33,662.725L364.33,668.431C364.33,670.195 365.066,671.077 366.538,671.077C367.34,671.077 367.948,670.792 368.364,670.224C368.779,669.655 368.987,668.912 368.987,667.994L368.987,662.725Z" style="fill:rgb(77,77,77);fill-rule:nonzero;"/>
        <path d="M382.969,671.656C381.999,672.669 380.691,673.175 379.044,673.175C377.397,673.175 376.089,672.669 375.12,671.656C374.15,670.643 373.666,669.364 373.666,667.819C373.666,666.274 374.15,664.995 375.12,663.982C376.089,662.969 377.397,662.462 379.044,662.462C380.691,662.462 381.999,662.969 382.969,663.982C383.938,664.995 384.422,666.274 384.422,667.819C384.422,669.364 383.938,670.643 382.969,671.656ZM376.847,670.158C377.379,670.756 378.111,671.055 379.044,671.055C379.977,671.055 380.709,670.756 381.241,670.158C381.773,669.561 382.039,668.781 382.039,667.819C382.039,666.857 381.773,666.077 381.241,665.48C380.709,664.882 379.977,664.583 379.044,664.583C378.111,664.583 377.379,664.882 376.847,665.48C376.315,666.077 376.049,666.857 376.049,667.819C376.049,668.781 376.315,669.561 376.847,670.158Z" style="fill:rgb(77,77,77);fill-rule:nonzero;"/>
        <path d="M390.391,673.175C389.24,673.175 388.321,672.833 387.636,672.148C386.951,671.463 386.609,670.457 386.609,669.131L386.609,662.725L388.992,662.725L388.992,668.54C388.992,669.4 389.152,670.049 389.473,670.486C389.794,670.923 390.326,671.142 391.069,671.142C391.929,671.142 392.556,670.898 392.949,670.41C393.343,669.921 393.539,669.276 393.539,668.475L393.539,662.725L395.923,662.725L395.923,672.913L393.539,672.913L393.539,671.492C392.913,672.614 391.863,673.175 390.391,673.175Z" style="fill:rgb(77,77,77);fill-rule:nonzero;"/>
        <path d="M398.983,672.913L398.983,662.725L401.367,662.725L401.367,664.692C401.541,664.007 401.884,663.486 402.394,663.129C402.904,662.772 403.465,662.594 404.078,662.594C404.471,662.594 404.785,662.623 405.018,662.681L405.018,664.867C404.77,664.838 404.457,664.824 404.078,664.824C403.232,664.824 402.569,665.133 402.088,665.753C401.607,666.372 401.367,667.258 401.367,668.409L401.367,672.913L398.983,672.913Z" style="fill:rgb(77,77,77);fill-rule:nonzero;"/>
        <path d="M418.158,662.462C420.635,662.462 421.874,663.811 421.874,666.507L421.874,672.913L419.491,672.913L419.491,667.6C419.491,666.493 419.324,665.698 418.988,665.217C418.653,664.736 418.077,664.496 417.261,664.496C416.489,664.496 415.891,664.74 415.468,665.228C415.046,665.716 414.834,666.412 414.834,667.316L414.834,672.913L412.451,672.913L412.451,657.609L414.834,657.609L414.834,664.146C415.49,663.024 416.598,662.462 418.158,662.462Z" style="fill:rgb(77,77,77);fill-rule:nonzero;"/>
        <path d="M433.364,671.656C432.394,672.669 431.086,673.175 429.439,673.175C427.792,673.175 426.484,672.669 425.515,671.656C424.545,670.643 424.061,669.364 424.061,667.819C424.061,666.274 424.545,664.995 425.515,663.982C426.484,662.969 427.792,662.462 429.439,662.462C431.086,662.462 432.394,662.969 433.364,663.982C434.333,664.995 434.817,666.274 434.817,667.819C434.817,669.364 434.333,670.643 433.364,671.656ZM427.242,670.158C427.774,670.756 428.506,671.055 429.439,671.055C430.372,671.055 431.104,670.756 431.636,670.158C432.168,669.561 432.434,668.781 432.434,667.819C432.434,666.857 432.168,666.077 431.636,665.48C431.104,664.882 430.372,664.583 429.439,664.583C428.506,664.583 427.774,664.882 427.242,665.48C426.71,666.077 426.444,666.857 426.444,667.819C426.444,668.781 426.71,669.561 427.242,670.158Z" style="fill:rgb(77,77,77);fill-rule:nonzero;"/>
        <path d="M437.113,672.913L437.113,662.725L439.496,662.725L439.496,664.146C439.729,663.65 440.101,663.246 440.611,662.932C441.121,662.619 441.697,662.462 442.338,662.462C443.956,662.462 445.028,663.067 445.552,664.277C445.8,663.752 446.208,663.319 446.777,662.976C447.345,662.634 447.979,662.462 448.679,662.462C451.128,662.462 452.352,663.796 452.352,666.463L452.352,672.913L449.969,672.913L449.969,666.922C449.969,665.305 449.335,664.496 448.067,664.496C447.396,664.496 446.871,664.718 446.492,665.162C446.114,665.607 445.924,666.39 445.924,667.513L445.924,672.913L443.541,672.913L443.541,666.901C443.541,665.297 442.921,664.496 441.683,664.496C440.998,664.496 440.462,664.718 440.076,665.162C439.689,665.607 439.496,666.39 439.496,667.513L439.496,672.913L437.113,672.913Z" style="fill:rgb(77,77,77);fill-rule:nonzero;"/>
        <path d="M464.53,667.294C464.53,667.557 464.508,667.994 464.464,668.606L456.899,668.606C456.929,669.408 457.191,670.023 457.687,670.453C458.182,670.883 458.867,671.098 459.742,671.098C460.864,671.098 461.622,670.712 462.015,669.94L464.42,669.94C464.26,670.887 463.746,671.663 462.879,672.268C462.012,672.873 460.966,673.175 459.742,673.175C458.138,673.175 456.87,672.694 455.937,671.732C455.005,670.77 454.538,669.466 454.538,667.819C454.538,666.186 455.001,664.886 455.927,663.916C456.852,662.947 458.095,662.462 459.654,662.462C461.112,662.462 462.289,662.911 463.185,663.807C464.082,664.703 464.53,665.866 464.53,667.294ZM456.899,666.791L462.19,666.791C462.176,666.004 461.946,665.399 461.502,664.977C461.057,664.554 460.427,664.343 459.611,664.343C458.78,664.343 458.124,664.569 457.643,665.02C457.162,665.472 456.914,666.063 456.899,666.791Z" style="fill:rgb(77,77,77);fill-rule:nonzero;"/>
    </g>
    <g transform="matrix(1.36885,0,0,1.36885,-666.542,-173.175)">
        <g transform="matrix(1.31193,0,0,1.31193,380.636,204.686)">
            <path d="M296.374,251.118L288.476,251.118L286.187,243.96L274.743,243.96L272.477,251.118L264.624,251.118L276.336,218.941L284.93,218.941L296.374,251.118ZM284.527,238.396L280.499,225.909L276.292,238.396L284.527,238.396Z" style="fill:rgb(77,77,77);fill-rule:nonzero;"/>
        </g>
        <g transform="matrix(1.31193,0,0,1.31193,380.636,204.686)">
            <path d="M321.887,251.118L314.819,251.118L314.819,238.351C314.819,234.79 313.547,233.01 311.004,233.01C309.777,233.01 308.768,233.482 307.975,234.424C307.182,235.366 306.786,236.563 306.786,238.014L306.786,251.118L299.695,251.118L299.695,228.141L306.786,228.141L306.786,231.776L306.875,231.776C308.566,228.979 311.026,227.58 314.258,227.58C319.344,227.58 321.887,230.737 321.887,237.049L321.887,251.118Z" style="fill:rgb(77,77,77);fill-rule:nonzero;"/>
        </g>
        <g transform="matrix(1.31193,0,0,1.31193,380.636,204.686)">
            <path d="M344.909,250.288C343.308,251.216 340.997,251.679 337.975,251.679C334.445,251.679 331.588,250.61 329.404,248.471C327.22,246.331 326.128,243.571 326.128,240.191C326.128,236.286 327.298,233.209 329.639,230.957C331.98,228.706 335.111,227.58 339.03,227.58C341.737,227.58 343.697,227.939 344.909,228.657L344.909,234.671C343.428,233.564 341.775,233.01 339.95,233.01C337.915,233.01 336.304,233.605 335.114,234.794C333.925,235.983 333.33,237.625 333.33,239.719C333.33,241.754 333.899,243.351 335.036,244.51C336.173,245.669 337.736,246.249 339.725,246.249C341.491,246.249 343.218,245.696 344.909,244.589L344.909,250.288Z" style="fill:rgb(77,77,77);fill-rule:nonzero;"/>
        </g>
        <g transform="matrix(1.31193,0,0,1.31193,380.636,204.686)">
            <path d="M371.611,251.118L364.543,251.118L364.543,238.059C364.543,234.693 363.316,233.01 360.863,233.01C359.606,233.01 358.589,233.482 357.811,234.424C357.033,235.366 356.644,236.563 356.644,238.014L356.644,251.118L349.554,251.118L349.554,218.941L356.644,218.941L356.644,231.552L356.734,231.552C358.469,228.904 360.825,227.58 363.802,227.58C369.008,227.58 371.611,230.722 371.611,237.004L371.611,251.118Z" style="fill:rgb(77,77,77);fill-rule:nonzero;"/>
        </g>
        <g transform="matrix(1.31193,0,0,1.31193,380.636,204.686)">
            <path d="M388.17,251.679C384.341,251.679 381.33,250.606 379.139,248.459C376.947,246.313 375.852,243.399 375.852,239.719C375.852,235.92 376.988,232.947 379.262,230.8C381.536,228.654 384.61,227.58 388.484,227.58C392.299,227.58 395.291,228.654 397.46,230.8C399.629,232.947 400.714,235.785 400.714,239.316C400.714,243.13 399.595,246.144 397.359,248.358C395.123,250.572 392.06,251.679 388.17,251.679ZM388.35,233.01C386.674,233.01 385.373,233.586 384.446,234.738C383.518,235.89 383.054,237.52 383.054,239.63C383.054,244.043 384.834,246.249 388.395,246.249C391.79,246.249 393.488,243.983 393.488,239.45C393.488,235.157 391.775,233.01 388.35,233.01Z" style="fill:rgb(77,77,77);fill-rule:nonzero;"/>
        </g>
        <g transform="matrix(1.31193,0,0,1.31193,380.636,204.686)">
            <path d="M420.302,234.536C419.45,234.072 418.455,233.841 417.318,233.841C415.777,233.841 414.573,234.405 413.705,235.535C412.838,236.664 412.404,238.201 412.404,240.146L412.404,251.118L405.313,251.118L405.313,228.141L412.404,228.141L412.404,232.405L412.494,232.405C413.616,229.293 415.635,227.737 418.552,227.737C419.3,227.737 419.884,227.827 420.302,228.007L420.302,234.536Z" style="fill:rgb(77,77,77);fill-rule:nonzero;"/>
        </g>
    </g>
    <g transform="matrix(2.58962,0,0,11.6185,-1448.9,-5477.11)">
        <rect x="642.198" y="489.508" width="44.628" height="44.628" style="fill-opacity:0.06;"/>
    </g>
    <g transform="matrix(1.58568e-16,2.58962,-11.4438,7.00731e-16,6326.69,-1452.8)">
        <rect x="642.198" y="489.508" width="44.628" height="44.628" style="fill-opacity:0.06;"/>
    </g>
    <g transform="matrix(1.58568e-16,2.58962,-11.4438,7.00731e-16,6326.69,-1049.86)">
        <rect x="642.198" y="489.508" width="44.628" height="44.628" style="fill-opacity:0.06;"/>
    </g>
    <g transform="matrix(2.58962,0,0,11.6185,-1053.76,-5477.11)">
        <rect x="642.198" y="489.508" width="44.628" height="44.628" style="fill-opacity:0.06;"/>
    </g>
    <g transform="matrix(0.581424,2.50746e-16,2.14919e-17,1.36885,96.5412,-13.5662)">
        <path d="M840.94,347.589L1080.65,347.589" style="fill:none;stroke:rgb(77,77,77);stroke-width:0.45px;"/>
    </g>
    <g transform="matrix(1.02855e-16,0.241063,-1.36885,-8.98373e-16,1142.87,297.825)">
        <g transform="matrix(-2.72252e-15,-0.73054,4.14829,3.11703e-16,-1235.47,834.911)">
            <path d="M672.031,507.157L667.072,500.545L662.112,507.157L672.031,507.157Z" style="fill:rgb(77,77,77);"/>
            <path d="M672.031,551.717L667.072,558.329L662.112,551.717L672.031,551.717Z" style="fill:rgb(77,77,77);"/>
            <path d="M667.072,505.835L667.072,553.04" style="fill:none;stroke:rgb(77,77,77);stroke-width:0.44px;"/>
        </g>
    </g>
    <g transform="matrix(0.580959,2.42459e-16,-3.67293e-18,1.36885,-274.408,-13.5662)">
        <path d="M840.94,347.589L1080.65,347.589" style="fill:none;stroke:rgb(77,77,77);stroke-width:0.45px;"/>
    </g>
    <g transform="matrix(-0.543631,-2.83386e-16,-1.07007e-15,1.36885,801.617,24.3961)">
        <path d="M840.94,347.589L1080.65,347.589" style="fill:none;stroke:rgb(77,77,77);stroke-width:0.45px;"/>
    </g>
    <g transform="matrix(-0.482126,-2.28126e-16,-1.08815e-15,1.36885,735.152,82.1807)">
        <path d="M840.94,347.589L1080.65,347.589" style="fill:none;stroke:rgb(77,77,77);stroke-width:0.45px;"/>
    </g>
    <g transform="matrix(-0.930804,-6.41843e-16,-8.57369e-16,1.36885,1507.61,24.3961)">
        <path d="M840.94,347.589L1080.65,347.589" style="fill:none;stroke:rgb(77,77,77);stroke-width:0.45px;"/>
    </g>
    <g transform="matrix(0.482126,-1.38557e-16,-2.66481e-16,1.36885,203.848,82.1807)">
        <path d="M840.94,347.589L1080.65,347.589" style="fill:none;stroke:rgb(77,77,77);stroke-width:0.45px;"/>
    </g>
    <g transform="matrix(0.822167,2.28393e-16,-5.23901e-17,1.36885,-163.617,101.428)">
        <path d="M840.94,347.589L1080.65,347.589" style="fill:none;stroke:rgb(77,77,77);stroke-width:0.45px;"/>
    </g>
    <g transform="matrix(0.482126,2.28393e-16,-3.0722e-17,1.36885,-191.295,101.428)">
        <path d="M840.94,347.589L1080.65,347.589" style="fill:none;stroke:rgb(77,77,77);stroke-width:0.45px;"/>
    </g>
    <g transform="matrix(-0.482126,2.28393e-16,3.0722e-17,1.36885,1130.3,137.389)">
        <path d="M840.94,347.589L1080.65,347.589" style="fill:none;stroke:rgb(77,77,77);stroke-width:0.45px;"/>
    </g>
    <g transform="matrix(-0.482126,2.28393e-16,3.0722e-17,1.36885,735.152,137.389)">
        <path d="M840.94,347.589L1080.65,347.589" style="fill:none;stroke:rgb(77,77,77);stroke-width:0.45px;"/>
    </g>
    <g transform="matrix(1,0,0,1,0.0129952,415.959)">
        <text x="254.489px" y="131.761px" style="font-family:'NirmalaUI-Bold', 'Nirmala UI', sans-serif;font-weight:700;font-size:53.228px;fill:rgb(77,77,77);">X</text>
    </g>
    <g transform="matrix(1,0,0,1,-0.987635,155.216)">
        <text x="239.18px" y="131.761px" style="font-family:'NirmalaUI-Bold', 'Nirmala UI', sans-serif;font-weight:700;font-size:53.228px;fill:rgb(77,77,77);">2X</text>
    </g>
</svg>
